<svg width="30" height="31" viewBox="0 0 30 31" fill="none" xmlns="http://www.w3.org/2000/svg">
<g clip-path="url(#clip0_430_458)">
<path d="M27.5 13V25.5C27.5 25.8315 27.3683 26.1495 27.1339 26.3839C26.8995 26.6183 26.5815 26.75 26.25 26.75H3.75C3.41848 26.75 3.10054 26.6183 2.86612 26.3839C2.6317 26.1495 2.5 25.8315 2.5 25.5V13H27.5ZM27.5 10.5H2.5V5.5C2.5 5.16848 2.6317 4.85054 2.86612 4.61612C3.10054 4.3817 3.41848 4.25 3.75 4.25H26.25C26.5815 4.25 26.8995 4.3817 27.1339 4.61612C27.3683 4.85054 27.5 5.16848 27.5 5.5V10.5ZM18.75 20.5V23H23.75V20.5H18.75Z" fill="#2EA5D7"/>
</g>
<defs>
<clipPath id="clip0_430_458">
<rect width="30" height="30" fill="white" transform="translate(0 0.5)"/>
</clipPath>
</defs>
</svg>
