<svg width="20" height="20" viewBox="0 0 19 19" fill="none" xmlns="http://www.w3.org/2000/svg">
<g clip-path="url(#clip0_433_200)">
<path d="M9.5 17C5.35775 17 2 13.6423 2 9.5C2 5.35775 5.35775 2 9.5 2C13.6423 2 17 5.35775 17 9.5C17 13.6423 13.6423 17 9.5 17ZM9.5 15.5C11.0913 15.5 12.6174 14.8679 13.7426 13.7426C14.8679 12.6174 15.5 11.0913 15.5 9.5C15.5 7.9087 14.8679 6.38258 13.7426 5.25736C12.6174 4.13214 11.0913 3.5 9.5 3.5C7.9087 3.5 6.38258 4.13214 5.25736 5.25736C4.13214 6.38258 3.5 7.9087 3.5 9.5C3.5 11.0913 4.13214 12.6174 5.25736 13.7426C6.38258 14.8679 7.9087 15.5 9.5 15.5ZM8.75 11.75H10.25V13.25H8.75V11.75ZM10.25 10.5162V11H8.75V9.875C8.75 9.67609 8.82902 9.48532 8.96967 9.34467C9.11032 9.20402 9.30109 9.125 9.5 9.125C9.71306 9.12499 9.92173 9.06447 10.1017 8.9505C10.2818 8.83652 10.4257 8.67377 10.5168 8.48119C10.608 8.2886 10.6425 8.0741 10.6165 7.86263C10.5905 7.65117 10.505 7.45144 10.3699 7.28668C10.2348 7.12193 10.0557 6.99892 9.85342 6.93198C9.65115 6.86503 9.43403 6.8569 9.22732 6.90853C9.02061 6.96016 8.83281 7.06942 8.68577 7.22361C8.53874 7.3778 8.43851 7.57057 8.39675 7.7795L6.92525 7.48475C7.01647 7.02881 7.22713 6.60528 7.53569 6.25744C7.84425 5.9096 8.23964 5.64994 8.68144 5.50499C9.12325 5.36004 9.59561 5.33501 10.0503 5.43246C10.5049 5.52991 10.9255 5.74634 11.2691 6.05962C11.6127 6.3729 11.8669 6.7718 12.0058 7.21555C12.1447 7.65929 12.1633 8.13196 12.0596 8.58523C11.956 9.0385 11.7338 9.45612 11.4159 9.7954C11.0979 10.1347 10.6956 10.3834 10.25 10.5162Z" fill="#DCB147"/>
</g>
<defs>
<clipPath id="clip0_433_200">
<rect width="30" height="30" fill="white" transform="translate(0.5 0.5)"/>
</clipPath>
</defs>
</svg>
