<svg width="24" height="25" viewBox="0 0 24 25" fill="none" xmlns="http://www.w3.org/2000/svg">
<g clip-path="url(#clip0_437_373)">
<path d="M22 20.6221H2V18.6221H3V11.6531C3 6.66513 7.03 2.62213 12 2.62213C16.97 2.62213 21 6.66513 21 11.6531V18.6221H22V20.6221ZM5 18.6221H19V11.6531C19 7.77013 15.866 4.62213 12 4.62213C8.134 4.62213 5 7.77013 5 11.6531V18.6221ZM9.5 21.6221H14.5C14.5 22.2852 14.2366 22.9211 13.7678 23.3899C13.2989 23.8587 12.663 24.1221 12 24.1221C11.337 24.1221 10.7011 23.8587 10.2322 23.3899C9.76339 22.9211 9.5 22.2852 9.5 21.6221Z" fill="#F66D6D"/>
</g>
<defs>
<clipPath id="clip0_437_373">
<rect width="24" height="24" fill="white" transform="translate(0 0.622131)"/>
</clipPath>
</defs>
</svg>
