<svg width="30" height="31" viewBox="0 0 30 31" fill="none" xmlns="http://www.w3.org/2000/svg">
<g clip-path="url(#clip0_430_450)">
<path d="M25 28H8.125C6.96468 28 5.85188 27.5391 5.03141 26.7186C4.21094 25.8981 3.75 24.7853 3.75 23.625V6.75C3.75 5.75544 4.14509 4.80161 4.84835 4.09835C5.55161 3.39509 6.50544 3 7.5 3H25C25.3315 3 25.6495 3.1317 25.8839 3.36612C26.1183 3.60054 26.25 3.91848 26.25 4.25V26.75C26.25 27.0815 26.1183 27.3995 25.8839 27.6339C25.6495 27.8683 25.3315 28 25 28ZM23.75 25.5V21.75H8.125C7.62772 21.75 7.15081 21.9475 6.79917 22.2992C6.44754 22.6508 6.25 23.1277 6.25 23.625C6.25 24.1223 6.44754 24.5992 6.79917 24.9508C7.15081 25.3025 7.62772 25.5 8.125 25.5H23.75ZM12.5 5.5V15.5L16.875 13L21.25 15.5V5.5H12.5Z" fill="#00B49E"/>
</g>
<defs>
<clipPath id="clip0_430_450">
<rect width="30" height="30" fill="white" transform="translate(0 0.5)"/>
</clipPath>
</defs>
</svg>
