<svg width="30" height="31" viewBox="0 0 30 31" fill="none" xmlns="http://www.w3.org/2000/svg">
<g clip-path="url(#clip0_430_454)">
<path d="M15 28C8.09625 28 2.5 22.4037 2.5 15.5C2.5 8.59625 8.09625 3 15 3C21.9037 3 27.5 8.59625 27.5 15.5C27.5 22.4037 21.9037 28 15 28ZM10.625 18V20.5H13.75V23H16.25V20.5H17.5C18.3288 20.5 19.1237 20.1708 19.7097 19.5847C20.2958 18.9987 20.625 18.2038 20.625 17.375C20.625 16.5462 20.2958 15.7513 19.7097 15.1653C19.1237 14.5792 18.3288 14.25 17.5 14.25H12.5C12.3342 14.25 12.1753 14.1842 12.0581 14.0669C11.9408 13.9497 11.875 13.7908 11.875 13.625C11.875 13.4592 11.9408 13.3003 12.0581 13.1831C12.1753 13.0658 12.3342 13 12.5 13H19.375V10.5H16.25V8H13.75V10.5H12.5C11.6712 10.5 10.8763 10.8292 10.2903 11.4153C9.70424 12.0013 9.375 12.7962 9.375 13.625C9.375 14.4538 9.70424 15.2487 10.2903 15.8347C10.8763 16.4208 11.6712 16.75 12.5 16.75H17.5C17.6658 16.75 17.8247 16.8158 17.9419 16.9331C18.0592 17.0503 18.125 17.2092 18.125 17.375C18.125 17.5408 18.0592 17.6997 17.9419 17.8169C17.8247 17.9342 17.6658 18 17.5 18H10.625Z" fill="#F7B101"/>
</g>
<defs>
<clipPath id="clip0_430_454">
<rect width="30" height="30" fill="white" transform="translate(0 0.5)"/>
</clipPath>
</defs>
</svg>
