<svg width="80" height="80" viewBox="0 0 80 80" fill="none" xmlns="http://www.w3.org/2000/svg">
<path d="M34.8299 77.8231L2.17687 45.1701C-0.725623 42.2676 -0.725623 37.7324 2.17687 34.8299L34.8299 2.17687C37.7324 -0.725623 42.2676 -0.725623 45.1701 2.17687L77.8231 34.8299C80.7256 37.7324 80.7256 42.2676 77.8231 45.1701L45.1701 77.8231C42.2676 80.7256 37.551 80.7256 34.8299 77.8231Z" fill="#F44336"/>
<path d="M35.5557 55.8737C35.5557 55.3295 35.7371 54.7852 35.9185 54.241C36.0999 53.6968 36.4627 53.334 36.8255 52.9712C37.1883 52.6084 37.7325 52.2456 38.2768 52.0642C38.821 51.8827 39.3652 51.7013 40.0908 51.7013C40.8164 51.7013 41.3607 51.8827 41.9049 52.0642C42.4491 52.2456 42.9933 52.6084 43.3561 52.9712C43.7189 53.334 44.0817 53.6968 44.2631 54.241C44.4446 54.7852 44.626 55.3295 44.626 55.8737C44.626 56.4179 44.4446 56.9621 44.2631 57.5063C44.0817 58.0505 43.7189 58.4134 43.3561 58.7762C42.9933 59.139 42.4491 59.5018 41.9049 59.6832C41.3607 59.8646 40.8164 60.046 40.0908 60.046C39.3652 60.046 38.821 59.8646 38.2768 59.6832C37.7325 59.5018 37.3697 59.139 36.8255 58.7762C36.4627 58.4134 36.0999 58.0505 35.9185 57.5063C35.7371 56.9621 35.5557 56.5993 35.5557 55.8737ZM43.1747 47.529H36.6441L35.7371 20.1367H44.0817L43.1747 47.529Z" fill="white"/>
</svg>
